<?xml version="1.0" encoding="UTF-8" standalone="no"?>
<!-- Created with Inkscape (http://www.inkscape.org/) -->

<svg
   version="1.1"
   id="svg2"
   xml:space="preserve"
   width="256"
   height="256"
   viewBox="0 0 2800 2800"
   sodipodi:docname="PancakesFullPlate.svg"
   inkscape:version="1.1.2 (0a00cf5339, 2022-02-04)"
   xmlns:inkscape="http://www.inkscape.org/namespaces/inkscape"
   xmlns:sodipodi="http://sodipodi.sourceforge.net/DTD/sodipodi-0.dtd"
   xmlns="http://www.w3.org/2000/svg"
   xmlns:svg="http://www.w3.org/2000/svg"><defs
     id="defs6" /><sodipodi:namedview
     id="namedview4"
     pagecolor="#ffffff"
     bordercolor="#666666"
     borderopacity="1.0"
     inkscape:pageshadow="2"
     inkscape:pageopacity="0.0"
     inkscape:pagecheckerboard="0"
     showgrid="false"
     inkscape:zoom="0.27928571"
     inkscape:cx="1398.2097"
     inkscape:cy="1400"
     inkscape:window-width="1920"
     inkscape:window-height="1053"
     inkscape:window-x="0"
     inkscape:window-y="0"
     inkscape:window-maximized="1"
     inkscape:current-layer="g8" /><g
     id="g8"
     inkscape:groupmode="layer"
     inkscape:label="ink_ext_XXXXXX"
     transform="matrix(1.3333333,0,0,-1.3333333,0,2800)"><path
       d="m 1200.6167,1752.7475 c -3.6666,-23.4188 -17.2113,-49.3797 -36.9873,-71.6977 -20.4974,-23.0385 -66.6414,-38.0305 -107.9968,-45.7167 1.0821,12.4501 2.5447,25.2403 4.7487,38.0506 5.1293,29.9841 14.286,58.1467 28.9327,74.6 20.4973,23.0585 43.1986,36.9497 62.2334,42.7944 8.0546,2.9223 15.7486,4.0232 22.3406,4.0232 8.4153,0 15.0073,-2.1818 19.3953,-5.8447 6.9527,-6.2251 9.5174,-19.3756 7.3334,-36.2091"
       style="fill:#53c27a;fill-opacity:1;fill-rule:nonzero;stroke:none;stroke-width:0.200263"
       id="path34" /><path
       d="m 1151.5474,1790.7781 c 0,-4.3835 0,-9.5076 -0.7214,-14.6318 -3.6666,-23.3988 -17.2113,-49.3596 -36.9873,-71.6776 -11.3407,-12.8103 -31.1167,-23.4189 -53.4574,-31.085 5.1293,29.9841 14.286,58.1467 28.9327,74.6 20.4973,23.0585 43.1986,36.9497 62.2334,42.7944"
       style="fill:#65c889;fill-opacity:1;fill-rule:nonzero;stroke:none;stroke-width:0.200263"
       id="path36" /><path
       d="m 910.78487,1785.5138 c 1.12404,-0.2802 102.57073,-37.35 118.86043,-173.7797 3.5665,0.8808 48.4082,33.487 48.4082,33.487 0,0 -12.3825,57.8265 -26.9491,82.3262 -48.328,81.2853 -117.48789,109.6881 -121.77372,111.0092 -14.89312,5.0641 -30.62983,-2.8022 -35.96948,-17.394 -5.0573,-14.5917 2.81111,-30.6046 17.42367,-35.6487"
       style="fill:#505256;fill-opacity:1;fill-rule:nonzero;stroke:none;stroke-width:0.200263"
       id="path38" /><path
       d="m 1181.0812,1532.0501 c 0,-66.0131 -53.798,-119.7562 -119.8985,-119.7562 -37.7486,0 -71.34987,17.5541 -93.30979,44.7559 -16.67844,20.6166 -26.55836,46.7175 -26.55836,75.0003 0,66.0331 53.78793,119.7563 119.86815,119.7563 6.5921,0 13.1841,-0.4204 19.5557,-1.7414 56.8636,-9.2074 100.3428,-58.5671 100.3428,-118.0149"
       style="fill:#e6242c;fill-opacity:1;fill-rule:nonzero;stroke:none;stroke-width:0.200263"
       id="path40" /><path
       d="m 1107.3068,1575.0447 c 0,-66.0131 -53.798,-119.7563 -119.87836,-119.7563 -6.59197,0 -13.18395,0.4403 -19.55553,1.7614 -16.67844,20.6166 -26.55836,46.7175 -26.55836,75.0003 0,66.0331 53.78793,119.7563 119.86815,119.7563 6.5921,0 13.1841,-0.4204 19.5557,-1.7414 16.6903,-20.6167 26.5684,-46.7176 26.5684,-75.0203"
       style="fill:#ee2834;fill-opacity:1;fill-rule:nonzero;stroke:none;stroke-width:0.200263"
       id="path42" /><path
       d="m 2095.9873,566.67414 -15.1675,-37.73034 -23.042,-57.02584 c -3.7268,-8.54686 -12.3024,-14.25144 -21.96,-14.25144 h -282.3543 c -14.0455,0 -25.6867,-10.96882 -26.5684,-24.79994 -0.2203,-0.64052 -0.2203,-1.30105 -0.2203,-1.96158 v -1.10089 c 0.6612,-14.25144 12.5227,-25.66062 26.7887,-25.66062 h 110.882 l -31.3971,-68.65518 -15.8089,-34.86803 c -10.7595,-23.47887 -34.042,-38.39086 -59.7287,-38.39086 H 349.16005 c -25.68878,0 -48.96317,14.91199 -59.72076,38.39086 l -15.80879,34.86803 -31.39718,68.65518 H 1582.8729 c 14.266,0 26.1276,11.40918 26.7888,25.66062 v 1.10089 c 0,1.10089 0,1.96158 -0.2204,2.84229 -1.5429,13.39076 -12.9636,23.91923 -26.5684,23.91923 H 70.757014 c -9.65959,0 -18.223192,5.70458 -21.95599,14.25144 L 25.747039,528.9438 10.597448,566.67414 c -2.8531918,6.80546 -1.9755944,14.25145 2.196003,20.39639 4.391995,6.36511 11.637192,10.30829 19.759986,10.30829 H 2074.0274 c 8.1147,0 15.368,-3.94318 19.7559,-10.30829 4.1676,-6.14494 5.0493,-13.59093 2.204,-20.39639"
       style="fill:#dae8f8;fill-opacity:1;fill-rule:nonzero;stroke:none;stroke-width:0.200263"
       id="path44" /><path
       d="m 1957.6555,677.66335 c 0,-44.31562 -36.0057,-80.28453 -80.3664,-80.28453 H 229.27973 c -44.35078,0 -80.35835,35.96891 -80.35835,80.28453 0,16.45323 5.04919,32.02575 13.61278,44.73596 v 0.22017 c 14.4904,21.49726 39.08119,35.52854 66.74557,35.52854 H 1877.2891 c 22.1803,0 42.3771,-8.9872 56.8835,-23.67902 3.5065,-3.74299 6.7924,-7.68617 9.878,-11.84952 v -0.22017 c 8.5556,-12.71021 13.6049,-28.28273 13.6049,-44.73596"
       style="fill:#e6ad5a;fill-opacity:1;fill-rule:nonzero;stroke:none;stroke-width:0.200263"
       id="path46" /><path
       d="m 1944.0506,722.61948 v -0.22017 c -14.5063,-21.27711 -39.0911,-35.30838 -66.7615,-35.30838 H 229.27973 c -27.66438,0 -52.25517,14.03127 -66.74557,35.30838 v 0.22017 c 14.4904,21.49726 39.08119,35.52854 66.74557,35.52854 H 1877.2891 c 22.1803,0 42.3771,-8.9872 56.8835,-23.67902 3.5065,-3.74299 6.7924,-7.68617 9.878,-11.84952"
       style="fill:#fbc66a;fill-opacity:1;fill-rule:nonzero;stroke:none;stroke-width:0.200263"
       id="path48" /><path
       d="m 1957.6555,838.43257 c 0,-44.31562 -36.0057,-80.28455 -80.3664,-80.28455 H 229.27973 c -44.35078,0 -80.35835,35.96893 -80.35835,80.28455 0,16.45323 5.04919,32.02571 13.61278,44.73601 v 0.22011 c 14.4904,21.49732 39.08119,35.52861 66.74557,35.52861 H 1877.2891 c 22.1803,0 42.3771,-8.9872 56.8835,-23.67903 3.5065,-3.723 6.7924,-7.68625 9.878,-11.84958 v -0.22011 c 8.5556,-12.7103 13.6049,-28.28278 13.6049,-44.73601"
       style="fill:#e6ad5a;fill-opacity:1;fill-rule:nonzero;stroke:none;stroke-width:0.200263"
       id="path50" /><path
       d="m 1944.0506,883.38869 v -0.22011 c -14.5063,-21.2771 -39.0911,-35.30838 -66.7615,-35.30838 H 229.27973 c -27.66438,0 -52.25517,14.03128 -66.74557,35.30838 v 0.22011 c 14.4904,21.49732 39.08119,35.52861 66.74557,35.52861 H 1877.2891 c 22.1803,0 42.3771,-8.9872 56.8835,-23.67903 3.5065,-3.723 6.7924,-7.68625 9.878,-11.84958"
       style="fill:#fbc66a;fill-opacity:1;fill-rule:nonzero;stroke:none;stroke-width:0.200263"
       id="path52" /><path
       d="m 1957.6555,999.20184 c 0,-44.29569 -36.0057,-80.28454 -80.3664,-80.28454 H 229.27973 c -44.35078,0 -80.35835,35.98885 -80.35835,80.28454 0,16.45326 5.04919,32.02576 13.61278,44.75596 v 0.2202 c 14.4904,21.4772 39.08119,35.5285 66.74557,35.5285 H 1877.2891 c 22.1803,0 42.3771,-9.0072 56.8835,-23.6991 3.5065,-3.723 6.7924,-7.6661 9.878,-11.8294 v -0.2202 c 8.5556,-12.7302 13.6049,-28.3027 13.6049,-44.75596"
       style="fill:#e6ad5a;fill-opacity:1;fill-rule:nonzero;stroke:none;stroke-width:0.200263"
       id="path54" /><path
       d="m 1944.0506,1044.178 v -0.2202 c -14.5063,-21.2771 -39.0911,-35.3284 -66.7615,-35.3284 H 229.27973 c -27.66438,0 -52.25517,14.0513 -66.74557,35.3284 v 0.2202 c 14.4904,21.4772 39.08119,35.5285 66.74557,35.5285 H 1877.2891 c 22.1803,0 42.3771,-9.0072 56.8835,-23.6991 3.5065,-3.723 6.7924,-7.6661 9.878,-11.8294"
       style="fill:#fbc66a;fill-opacity:1;fill-rule:nonzero;stroke:none;stroke-width:0.200263"
       id="path56" /><path
       d="m 1957.6555,1159.971 c 0,-44.2956 -36.0057,-80.2645 -80.3664,-80.2645 H 229.27973 c -44.35078,0 -80.35835,35.9689 -80.35835,80.2645 0,16.4532 5.04919,32.0258 13.61278,44.7561 v 0.2201 c 14.4904,21.4973 39.08119,35.5286 66.74557,35.5286 H 1877.2891 c 22.1803,0 42.3771,-8.9872 56.8835,-23.6991 3.5065,-3.723 6.7924,-7.6662 9.878,-11.8295 v -0.2201 c 8.5556,-12.7303 13.6049,-28.3029 13.6049,-44.7561"
       style="fill:#e6ad5a;fill-opacity:1;fill-rule:nonzero;stroke:none;stroke-width:0.200263"
       id="path58" /><path
       d="m 1944.0506,1204.9472 v -0.2201 c -14.5063,-21.2771 -39.0911,-35.3084 -66.7615,-35.3084 H 229.27973 c -27.66438,0 -52.25517,14.0313 -66.74557,35.3084 v 0.2201 c 14.4904,21.4973 39.08119,35.5286 66.74557,35.5286 H 1877.2891 c 22.1803,0 42.3771,-8.9872 56.8835,-23.6991 3.5065,-3.723 6.7924,-7.6662 9.878,-11.8295"
       style="fill:#fbc66a;fill-opacity:1;fill-rule:nonzero;stroke:none;stroke-width:0.200263"
       id="path60" /><path
       d="m 1864.3455,404.14349 -31.3971,-68.65518 -15.8089,-34.86803 c -10.7595,-23.47887 -34.042,-38.39086 -59.7287,-38.39086 H 349.16005 c -25.68878,0 -48.96317,14.91199 -59.72076,38.39086 l -15.80879,34.86803 -31.39718,68.65518 H 1582.8729 c 14.266,0 26.1276,11.40918 26.7888,25.66062 h 117.0131 c 0.6612,-14.25144 12.5227,-25.66062 26.7887,-25.66062 h 110.882"
       style="fill:#bacfed;fill-opacity:1;fill-rule:nonzero;stroke:none;stroke-width:0.200263"
       id="path62" /><path
       d="m 1651.598,1364.5555 v -51.1011 c 0,-9.2275 -1.7632,-17.9945 -5.0491,-26.121 -10.3389,-27.1818 -36.6669,-46.2772 -67.4228,-46.2772 h -150.8348 c -15.1476,0 -29.1931,-3.2826 -41.9363,-9.2074 v -0.2201 c -34.2424,-15.5726 -57.9656,-50.2205 -57.9656,-90.3727 V 887.27182 c 0,-7.0256 -1.082,-13.59095 -3.0656,-19.7358 -8.3352,-26.10108 -33.1604,-45.17634 -62.1331,-45.17634 -36.0056,0 -64.9984,29.16343 -64.9984,64.91214 v 262.33098 c 0,50.4405 -41.0548,91.4534 -91.5467,91.4534 -12.5229,0 -24.6048,-2.4019 -35.7852,-7.0056 -10.7596,-4.6037 -20.4172,-11.189 -28.9928,-19.7359 -17.1312,-17.1138 -26.7888,-40.1523 -26.7888,-64.7119 V 936.41131 c 0,-3.3026 0,-6.58528 -0.6612,-10.30828 -0.4208,-3.3026 -1.3023,-6.36506 -2.4044,-9.42753 -8.3552,-26.5414 -33.16033,-45.19637 -62.13714,-45.19637 -32.05632,0 -59.0635,23.03851 -64.33113,55.28444 -0.43877,3.06246 -0.65916,6.34514 -0.65916,9.64774 v 213.19149 c 0,50.4405 -41.05681,91.4534 -91.55678,91.4534 -12.29637,0 -24.59084,-2.4019 -35.78717,-7.446 -10.53918,-4.3834 -20.42122,-10.9688 -28.98284,-19.2955 -17.12513,-17.1138 -26.56639,-40.1523 -26.56639,-64.7119 v -43.6552 c 0,-6.7855 -1.09792,-13.5909 -3.07359,-19.7358 -8.56352,-26.3212 -33.15435,-45.1764 -62.35557,-45.1764 -35.78716,0 -64.99029,29.1635 -64.99029,64.9122 v 108.3671 c 0,14.6918 -11.85559,26.7415 -26.56639,26.7415 h -78.38277 c -39.95877,0 -72.45595,32.4661 -72.45595,72.3982 v 50.8809 c 0,30.4845 20.85999,55.9249 48.96317,63.3909 5.26959,1.5213 10.97799,2.1817 16.68638,2.1817 H 1586.1589 c 36.0056,0 65.4391,-29.3835 65.4391,-65.3524"
       style="fill:#e78715;fill-opacity:1;fill-rule:nonzero;stroke:none;stroke-width:0.200263"
       id="path64" /><path
       d="m 1651.598,1364.5555 v -51.1011 c 0,-9.2275 -1.7632,-17.9945 -5.0491,-26.121 -6.8125,-2.1817 -14.0657,-3.2827 -21.5193,-3.2827 h -150.8547 c -37.9692,0 -70.9092,-21.0569 -87.8199,-52.2019 v -0.2201 c -34.2424,-15.5726 -57.9656,-50.2205 -57.9656,-90.3727 V 887.27182 c 0,-7.0256 -1.082,-13.59095 -3.0656,-19.7358 -5.2696,-1.5413 -10.5392,-2.20184 -16.2496,-2.20184 -36.0055,0 -65.1987,29.18346 -65.1987,64.93218 v 262.33094 c 0,50.4405 -40.8544,91.4534 -91.3463,91.4534 -24.5848,0 -47.4264,-9.4275 -64.7781,-26.7615 -6.7924,-6.7853 -12.5027,-14.6917 -16.8907,-23.2386 -10.7596,-4.6037 -20.4172,-11.189 -28.9928,-19.7359 -17.1312,-17.1138 -26.7888,-40.1523 -26.7888,-64.7119 V 936.41131 c 0,-3.3026 0,-6.58528 -0.6612,-10.30828 -0.4208,-3.3026 -1.3023,-6.36506 -2.4044,-9.42753 -5.2695,-1.54129 -10.5392,-2.20184 -16.24956,-2.20184 -32.05833,0 -59.28198,23.03852 -64.33113,55.26441 -0.43877,3.08249 -0.65926,6.36517 -0.65926,9.64785 v 213.21138 c 0,50.4405 -41.0567,91.4534 -91.77506,91.4534 -23.71319,0 -46.76723,-9.4275 -64.55162,-26.7615 -7.02472,-7.0056 -12.73514,-14.9119 -16.90475,-23.679 -10.53918,-4.3834 -20.42122,-10.9688 -28.98284,-19.2955 -17.12513,-17.1138 -26.56639,-40.1523 -26.56639,-64.7119 v -43.6552 c 0,-6.7855 -1.09792,-13.5909 -3.07359,-19.7358 -5.26954,-1.5413 -10.75957,-2.2018 -16.46799,-2.2018 -35.78917,0 -64.98827,29.1834 -64.98827,64.9322 v 108.347 c 0,14.6918 -11.8576,26.7615 -26.78679,26.7615 h -78.1644 c -39.95877,0 -72.45395,32.4661 -72.45395,72.3782 v 50.901 c 0,7.2258 1.09799,14.0313 3.0736,20.3963 5.26959,1.5213 10.97799,2.1817 16.68638,2.1817 H 1586.1589 c 36.0056,0 65.4391,-29.3835 65.4391,-65.3524"
       style="fill:#f8a01d;fill-opacity:1;fill-rule:nonzero;stroke:none;stroke-width:0.200263"
       id="path66" /></g></svg>
